<?xml version="1.0" standalone="no"?>
<!DOCTYPE svg PUBLIC "-//W3C//DTD SVG 20010904//EN"
 "http://www.w3.org/TR/2001/REC-SVG-20010904/DTD/svg10.dtd">
<svg version="1.0" xmlns="http://www.w3.org/2000/svg"
 width="270.000000pt" height="270.000000pt" viewBox="0 0 270.000000 270.000000"
 preserveAspectRatio="xMidYMid meet">
<metadata>
Created by potrace 1.14, written by Peter Selinger 2001-2017
</metadata>
<g transform="translate(0.000000,270.000000) scale(0.100000,-0.100000)"
fill="#000000" stroke="none">
<path d="M582 2339 c-12 -5 -29 -6 -37 -3 -13 5 -15 -69 -14 -605 0 -569 1
-611 17 -612 56 -3 203 1 211 6 7 4 7 15 1 30 -5 14 -6 25 -2 25 7 0 6 232 -2
263 -2 9 -1 17 3 17 4 0 7 12 6 27 l0 27 268 0 267 0 1 26 c2 62 -1 193 -5
197 -2 2 -122 5 -267 6 l-263 2 -6 25 c-4 14 -4 36 0 50 3 13 3 46 0 72 -4 27
-4 48 0 48 3 0 5 12 4 28 -1 15 -3 41 -4 57 -1 17 -2 42 -1 58 l1 27 270 0
270 0 1 28 c1 32 1 147 0 179 l-1 21 -270 0 c-149 0 -273 2 -276 5 -3 2 -19 1
-37 -2 -33 -8 -89 -7 -104 2 -4 2 -18 1 -31 -4z"/>
<path d="M1857 2344 c-3 -3 -79 -7 -169 -8 l-163 -1 -1 -100 c0 -55 2 -106 4
-112 3 -10 54 -13 208 -13 112 0 204 -3 205 -7 4 -29 3 -1277 -1 -1283 -3 -5
-33 10 -66 33 l-62 42 -638 0 -639 0 0 -114 0 -113 597 0 596 1 49 -32 c26
-17 50 -34 53 -37 5 -6 46 -35 243 -171 l97 -68 0 988 0 989 -144 0 c-80 0
-149 2 -154 6 -5 3 -12 3 -15 0z"/>
</g>
</svg>
