<svg width="100" height="100" viewBox="0 0 100 100" fill="none" xmlns="http://www.w3.org/2000/svg">
<path d="M18.75 9.375V90.625H81.25V9.375H18.75ZM25 15.625H75V84.375H25V15.625ZM31.25 21.875V40.625H68.75V21.875H31.25ZM37.5 28.125H62.5V34.375H37.5V28.125ZM34.375 46.875V53.125H40.625V46.875H34.375ZM46.875 46.875V53.125H53.125V46.875H46.875ZM59.375 46.875V53.125H65.625V46.875H59.375ZM34.375 59.375V65.625H40.625V59.375H34.375ZM46.875 59.375V65.625H53.125V59.375H46.875ZM59.375 59.375V65.625H65.625V59.375H59.375ZM34.375 71.875V78.125H40.625V71.875H34.375ZM46.875 71.875V78.125H53.125V71.875H46.875ZM59.375 71.875V78.125H65.625V71.875H59.375Z" fill="#3A4042"/>
</svg>
