<svg width="100" height="100" viewBox="0 0 100 100" fill="none" xmlns="http://www.w3.org/2000/svg">
<path d="M50.0002 9.375C48.0471 9.375 46.1064 10.0313 44.4346 11.2313L39.2596 14.8438L33.2971 15.625H33.2002L33.1033 15.7219C31.1478 16.1635 29.3575 17.1503 27.9399 18.5678C26.5223 19.9854 25.5356 21.7757 25.0939 23.7312L25.0002 23.8281V23.925L24.2189 29.9812L20.6064 34.6687L20.5064 34.7656V34.8625C18.3221 38.3531 18.2252 42.8594 20.6064 46.1906L24.3158 51.3656L25.2939 56.7406L15.2346 72.0688L12.0127 76.8562H26.9533L30.5658 85.2531L32.8127 90.625L36.0346 85.7406L45.8971 70.8969C48.5471 71.9844 51.5377 72.0844 54.1033 70.8969L63.9658 85.7406L67.1877 90.625L69.4346 85.2531L73.0471 76.8562H87.9877L84.7658 72.0688L75.0002 57.2281L75.7814 51.3687L79.3939 46.1937L79.4939 46.0969V46C81.6783 42.5094 81.7752 38.1 79.3939 34.7688L75.7814 29.5906L74.6096 23.7312H74.7064C74.6939 23.6562 74.6221 23.6063 74.6096 23.5344C74.0471 19.4469 70.8127 16.1281 66.7002 15.625H66.6002L60.7408 14.8438L55.5658 11.2313C53.9496 10.0472 52.0036 9.39821 50.0002 9.375V9.375ZM50.0002 15.7219C50.7189 15.7219 51.4283 15.9406 51.9533 16.3094L57.5189 20.3125L58.2033 20.8L58.9846 20.9L65.8221 21.875H65.9158C67.3221 22.0313 68.2971 23.0094 68.4564 24.4156V24.6094L69.7283 31.5437L69.8221 32.2281L70.3127 32.8125L74.3158 38.3781C75.0627 39.4156 75.1596 41.175 74.2189 42.675L69.8252 48.8281L69.7252 49.6094L68.7502 56.4469V56.5406C68.6982 57.029 68.5311 57.4981 68.2627 57.9094L68.0658 58.0094V58.1031C67.6014 58.661 66.9353 59.0125 66.2127 59.0813H66.0158L58.8877 60.3531L58.1064 60.4469L57.5189 60.9375L51.9533 64.9406C50.9158 65.6875 49.0596 65.7844 47.5596 64.8438L42.4814 60.9375L41.8939 60.45L41.0158 60.35L34.1783 59.375H34.0846C33.6427 59.336 33.2167 59.1913 32.8425 58.9531C32.4683 58.7148 32.1569 58.3901 31.9346 58.0063C31.7269 57.6459 31.5941 57.2473 31.5439 56.8344V56.6406L30.2752 49.5125L30.1752 48.7312L29.6877 48.1438L25.6846 42.5781C24.9377 41.5406 24.8408 39.6844 25.7814 38.1844L29.6877 33.1062L30.1752 32.5188L30.2721 31.6406L31.1533 25.0969C31.1658 25.05 31.2377 25.05 31.2502 25C31.445 24.2477 31.8375 23.5613 32.387 23.0118C32.9365 22.4623 33.6229 22.0698 34.3752 21.875C34.4252 21.8625 34.4252 21.7906 34.4721 21.7781L41.0158 20.8969L41.7971 20.8031L42.4814 20.3125L48.0471 16.3094C48.5721 15.9437 49.2814 15.7219 50.0002 15.7219V15.7219ZM71.5814 63.2812L76.3689 70.6062H68.8439L68.0627 72.5594L65.9158 77.5375L59.2752 67.3813L60.7377 66.3094L66.8939 65.2344V65.3313C66.9658 65.3188 67.0127 65.2469 67.0877 65.2344C68.7324 64.9971 70.2833 64.3226 71.5783 63.2812H71.5814ZM28.4189 63.3781C29.7759 64.6118 31.4806 65.3965 33.3002 65.625H33.3971L39.3564 66.4062L40.7221 67.4812L34.0814 77.5375L31.9346 72.5594L31.1533 70.6062H23.6346L28.4189 63.3781Z" fill="#3A4042"/>
<path d="M49.5699 37.4508C53.8136 37.4508 56.9391 38.3071 58.9462 40.0197C60.9821 41.7322 62 44.0253 62 46.8989C62 48.7566 61.5412 50.4546 60.6237 51.993C59.7061 53.5023 58.3011 54.7214 56.4086 55.6503C54.5448 56.5501 52.2366 57 49.4839 57C47.362 57 45.2688 56.7242 43.2043 56.1728C41.1685 55.5922 39.4337 54.7795 38 53.7345L40.7527 48.3357C41.8996 49.2065 43.2186 49.8886 44.7097 50.382C46.2007 50.8464 47.7348 51.0787 49.3118 51.0787C51.0609 51.0787 52.4373 50.7303 53.4409 50.0337C54.4444 49.3371 54.9462 48.3647 54.9462 47.1166C54.9462 45.8104 54.4158 44.8235 53.3548 44.1559C52.3226 43.4883 50.5161 43.1545 47.9355 43.1545H40.2366L41.7849 26H60.1505V31.6601H47.5914L47.1183 37.4508H49.5699Z" fill="#3A4042"/>
</svg>
