<svg width="100" height="100" viewBox="0 0 100 100" fill="none" xmlns="http://www.w3.org/2000/svg">
<path d="M65.625 12.5C60.0219 12.5 54.9438 13.55 50.975 15.5281C47.0094 17.5062 43.75 20.7281 43.75 25V37.5C43.75 37.9031 43.8844 38.2938 43.9469 38.6719C40.8188 37.877 37.6024 37.4832 34.375 37.5C28.7719 37.5 23.6937 38.55 19.725 40.5281C15.7594 42.5062 12.5 45.7281 12.5 50V75C12.5 79.2719 15.7594 82.4938 19.7281 84.4719C23.6938 86.45 28.7719 87.5 34.375 87.5C39.9781 87.5 45.0562 86.45 49.025 84.4719C52.9875 82.4938 56.25 79.2719 56.25 75V73.7312C59.307 74.5577 62.4583 74.9842 65.625 75C71.2281 75 76.3062 73.95 80.275 71.9719C84.2375 69.9938 87.5 66.7719 87.5 62.5V25C87.5 20.7281 84.2406 17.5062 80.2719 15.5281C76.3094 13.55 71.2313 12.5 65.625 12.5ZM65.625 18.75C70.3844 18.75 74.6219 19.775 77.4406 21.1906C80.2625 22.6063 81.25 24.0969 81.25 25C81.25 25.9062 80.2625 27.3937 77.4406 28.8094C74.625 30.225 70.3844 31.25 65.625 31.25C60.8656 31.25 56.6281 30.225 53.8094 28.8094C50.9875 27.3937 50 25.9031 50 25C50 24.0938 50.9875 22.6063 53.8094 21.1906C56.625 19.775 60.8656 18.75 65.625 18.75ZM50 33.8875C50.3281 34.0687 50.6344 34.3031 50.9781 34.4719C54.9437 36.45 60.0219 37.5 65.625 37.5C71.2281 37.5 76.3062 36.45 80.275 34.4719C80.6156 34.3031 80.9219 34.0687 81.25 33.8875V37.5C81.25 38.4062 80.2625 39.8937 77.4406 41.3094C74.6219 42.725 70.3844 43.75 65.625 43.75C60.8656 43.75 56.6281 42.725 53.8094 41.3094C50.9875 39.8937 50 38.4031 50 37.5V33.8875ZM34.375 43.75C39.1344 43.75 43.3719 44.775 46.1906 46.1906C49.0125 47.6063 50 49.0969 50 50C50 50.9062 49.0125 52.3937 46.1906 53.8094C43.3719 55.225 39.1344 56.25 34.375 56.25C29.6156 56.25 25.3781 55.225 22.5594 53.8094C19.7375 52.3937 18.75 50.9031 18.75 50C18.75 49.0938 19.7375 47.6063 22.5594 46.1906C25.375 44.775 29.6156 43.75 34.375 43.75ZM81.25 46.3875V50C81.25 50.9062 80.2625 52.3937 77.4406 53.8094C74.6219 55.225 70.3844 56.25 65.625 56.25C62.4416 56.2673 59.2762 55.7724 56.25 54.7844V50C56.25 49.5969 56.1156 49.2062 56.0531 48.8281C58.9594 49.5844 62.1813 50 65.625 50C71.2281 50 76.3062 48.95 80.275 46.9719C80.6156 46.8031 80.9219 46.5687 81.25 46.3875V46.3875ZM18.75 58.8875C19.0781 59.0687 19.3844 59.3031 19.7281 59.4719C23.6938 61.45 28.7719 62.5 34.375 62.5C39.9781 62.5 45.0562 61.45 49.025 59.4719C49.3656 59.3031 49.6719 59.0687 50 58.8875V62.5C50 63.4062 49.0125 64.8937 46.1906 66.3094C43.3719 67.725 39.1344 68.75 34.375 68.75C29.6156 68.75 25.3781 67.725 22.5594 66.3094C19.7375 64.8937 18.75 63.4031 18.75 62.5V58.8875ZM81.25 58.8875V62.5C81.25 63.4062 80.2625 64.8937 77.4406 66.3094C74.6219 67.725 70.3844 68.75 65.625 68.75C62.0719 68.75 58.8625 68.25 56.25 67.3813V61.3281C59.1187 62.0844 62.2437 62.5 65.625 62.5C71.2281 62.5 76.3062 61.45 80.275 59.4719C80.6156 59.3031 80.9219 59.0687 81.25 58.8875V58.8875ZM18.75 71.3875C19.0781 71.5687 19.3844 71.8031 19.7281 71.9719C23.6938 73.95 28.7719 75 34.375 75C39.9781 75 45.0562 73.95 49.025 71.9719C49.3656 71.8031 49.6719 71.5687 50 71.3875V75C50 75.9062 49.0125 77.3937 46.1906 78.8094C43.3719 80.225 39.1344 81.25 34.375 81.25C29.6156 81.25 25.3781 80.225 22.5594 78.8094C19.7375 77.3937 18.75 75.9031 18.75 75V71.3875Z" fill="#3A4042"/>
</svg>
