<svg width="100" height="100" viewBox="0 0 100 100" fill="none" xmlns="http://www.w3.org/2000/svg">
<path d="M28.125 12.5V22.6063L17.2375 16.0719L14.0125 21.4281L19.9687 25H9.375V84.375H28.125V78.125H15.625V31.25H40.7094C43.3125 29.3125 46.5125 28.125 50 28.125C51.1 28.125 52.1313 28.2563 53.125 28.4438V25H42.5344L48.4875 21.4281L45.2625 16.0719L34.375 22.6063V12.5H28.125ZM50 34.375C44.8594 34.375 40.625 38.6094 40.625 43.75C40.625 44.85 40.8594 45.8875 41.2125 46.875H34.375V84.375H90.625V46.875H83.7875C84.1641 45.8756 84.3629 44.818 84.375 43.75C84.375 38.6094 80.1406 34.375 75 34.375C69.5312 34.375 65.8188 38.525 63.3781 41.9937C63.05 42.4531 62.7906 42.9125 62.5 43.3656C62.2063 42.9125 61.95 42.4594 61.6219 41.9906C59.1781 38.525 55.4688 34.375 50 34.375ZM50 40.625C51.9531 40.625 54.4937 42.7219 56.4469 45.5094C56.9219 46.1906 56.85 46.2312 57.2281 46.8812H50C48.2313 46.8812 46.875 45.525 46.875 43.7562C46.8678 43.3436 46.9437 42.9337 47.0981 42.551C47.2526 42.1683 47.4824 41.8205 47.7739 41.5284C48.0655 41.2363 48.4128 41.0057 48.7952 40.8505C49.1776 40.6954 49.5873 40.6187 50 40.625V40.625ZM75 40.625C76.7687 40.625 78.125 41.9813 78.125 43.75C78.125 45.5187 76.7687 46.875 75 46.875H67.7719C68.1531 46.2281 68.0781 46.1875 68.5531 45.5063C70.5094 42.725 73.0469 40.625 75 40.625ZM40.625 53.125H59.375V78.125H40.625V53.125ZM65.625 53.125H84.375V78.125H65.625V53.125Z" fill="#3A4042"/>
</svg>
