<svg width="100" height="100" viewBox="0 0 100 100" fill="none" xmlns="http://www.w3.org/2000/svg">
<path d="M37.5 15.625C32.3594 15.625 28.125 19.8594 28.125 25C28.125 26.1 28.3562 27.1375 28.7125 28.125H12.5V46.875H15.625V87.5H84.375V46.875H87.5V28.125H71.2875C71.6629 27.1252 71.8616 26.0678 71.875 25C71.875 19.8594 67.6406 15.625 62.5 15.625C57.0312 15.625 53.3188 19.775 50.8781 23.2438C50.55 23.7063 50.2938 24.1562 50 24.6094C49.7062 24.1562 49.45 23.7031 49.1219 23.2406C46.6812 19.7781 42.9688 15.625 37.5 15.625ZM37.5 21.875C39.4531 21.875 41.9937 23.975 43.9469 26.7594C44.4219 27.4406 44.3469 27.4781 44.7281 28.125H37.5C35.7313 28.125 34.375 26.7688 34.375 25C34.375 23.2312 35.7313 21.875 37.5 21.875ZM62.5 21.875C64.2687 21.875 65.625 23.2312 65.625 25C65.625 26.7688 64.2687 28.125 62.5 28.125H55.2719C55.6531 27.4781 55.5781 27.4406 56.0531 26.7563C58.0094 23.9781 60.5469 21.875 62.5 21.875ZM18.75 34.375H81.25V40.625H53.125V37.5H46.875V40.625H18.75V34.375ZM21.875 46.875H78.125V81.25H53.125V50H46.875V81.25H21.875V46.875Z" fill="#3A4042"/>
</svg>
