<svg width="100" height="100" viewBox="0 0 100 100" fill="none" xmlns="http://www.w3.org/2000/svg">
<path d="M15.625 18.75V61.1344L8.49688 68.3594C7.06994 69.7844 6.26258 71.7147 6.25 73.7312C6.25904 75.7226 7.0541 77.6297 8.46218 79.0378C9.87026 80.4459 11.7774 81.241 13.7688 81.25H86.2312C88.2226 81.241 90.1297 80.4459 91.5378 79.0378C92.9459 77.6297 93.741 75.7226 93.75 73.7312C93.75 71.7312 92.9188 69.775 91.5031 68.3594L84.375 61.1313V18.75H15.625ZM21.875 25H78.125V59.375H21.875V25ZM20.1156 65.625H79.8813L87.1094 72.7531C87.3573 73.0188 87.4967 73.3678 87.5 73.7312C87.5095 73.9004 87.4832 74.0696 87.4228 74.2278C87.3624 74.386 87.2693 74.5297 87.1495 74.6495C87.0297 74.7693 86.886 74.8624 86.7278 74.9228C86.5696 74.9832 86.4004 75.0095 86.2312 75H13.7688C13.5996 75.0095 13.4304 74.9832 13.2722 74.9228C13.114 74.8624 12.9703 74.7693 12.8505 74.6495C12.7307 74.5297 12.6376 74.386 12.5772 74.2278C12.5168 74.0696 12.4905 73.9004 12.5 73.7312C12.5 73.3875 12.6469 72.9969 12.8906 72.7531L20.1156 65.625Z" fill="#3A4042"/>
</svg>
