<svg width="100" height="100" viewBox="0 0 100 100" fill="none" xmlns="http://www.w3.org/2000/svg">
<path d="M71.4187 18.775C63.0125 19.0062 56.4969 21.2875 50.1531 23.4937C43.3688 25.85 36.9656 28.0719 28.0938 28.1625C22.1656 28.2562 16.2281 27.2312 10.3937 25.2125L6.25 23.7812V77.1625L8.33125 77.9031C13.7656 79.825 19.3219 80.9344 24.8531 81.1969C25.7312 81.2375 26.5906 81.2594 27.4344 81.2594C36.85 81.2594 44.0594 78.7594 51.05 76.3469C58.4188 73.7969 65.3687 71.3875 74.8531 71.8344C79.8803 72.0926 84.8424 73.0865 89.5813 74.7844L93.75 76.2594V22.8562L91.6937 22.1062C86.3763 20.1697 80.7942 19.0568 75.1406 18.8062C73.9008 18.7512 72.6593 18.7408 71.4187 18.775ZM71.5875 24.9812C72.65 24.95 73.7375 24.95 74.8656 24.9937C76.0344 25.0437 77.2031 25.15 78.3687 25.2875C78.8442 27.2483 80.0612 28.9484 81.764 30.0306C83.4669 31.1128 85.5229 31.4927 87.5 31.0906V59.5344C86.4763 59.326 85.4212 59.3255 84.3973 59.5329C83.3734 59.7403 82.4016 60.1513 81.5396 60.7416C80.6777 61.3319 79.9431 62.0894 79.3796 62.969C78.8161 63.8487 78.4352 64.8327 78.2594 65.8625C77.2243 65.756 76.1864 65.6789 75.1469 65.6312C64.475 65.1625 56.6062 67.8469 49 70.4844C41.6219 73.0406 34.6312 75.4562 25.1531 75.0062C23.9727 74.9445 22.7948 74.8403 21.6219 74.6937C21.1424 72.7384 19.9251 71.0443 18.2248 69.9661C16.5245 68.888 14.4731 68.5093 12.5 68.9094V40.4656C13.5298 40.6752 14.5914 40.6742 15.6209 40.4628C16.6503 40.2514 17.6264 39.8339 18.4903 39.2354C19.3541 38.6369 20.088 37.8698 20.6477 36.9803C21.2073 36.0907 21.5812 35.0972 21.7469 34.0594C23.8875 34.2812 26.0281 34.4094 28.1625 34.375C38.0531 34.275 45.2438 31.7719 52.2031 29.3531C58.3312 27.2187 64.1719 25.2125 71.5875 24.9812ZM73.4375 40.625C72.1943 40.625 71.002 41.1188 70.1229 41.9979C69.2439 42.877 68.75 44.0693 68.75 45.3125C68.75 46.5557 69.2439 47.748 70.1229 48.627C71.002 49.5061 72.1943 50 73.4375 50C74.6807 50 75.873 49.5061 76.7521 48.627C77.6311 47.748 78.125 46.5557 78.125 45.3125C78.125 44.0693 77.6311 42.877 76.7521 41.9979C75.873 41.1188 74.6807 40.625 73.4375 40.625ZM26.5625 50C25.3193 50 24.127 50.4938 23.2479 51.3729C22.3689 52.252 21.875 53.4443 21.875 54.6875C21.875 55.9307 22.3689 57.123 23.2479 58.002C24.127 58.8811 25.3193 59.375 26.5625 59.375C27.8057 59.375 28.998 58.8811 29.8771 58.002C30.7561 57.123 31.25 55.9307 31.25 54.6875C31.25 53.4443 30.7561 52.252 29.8771 51.3729C28.998 50.4938 27.8057 50 26.5625 50Z" fill="#3A4042"/>
<path d="M59.7973 54.8013C59.7973 56.5755 59.1482 58.1009 57.85 59.3774C56.5518 60.6323 54.6803 61.4113 52.2354 61.7142V65.3491H48.9899V61.8115C47.3888 61.725 45.8635 61.4437 44.4138 60.9677C42.9642 60.4917 41.7958 59.9075 40.9087 59.2152L42.6937 55.2557C43.5159 55.8615 44.4787 56.37 45.5822 56.7811C46.6856 57.1922 47.8215 57.4518 48.9899 57.56V52.1401C47.4537 51.7723 46.1555 51.3612 45.0954 50.9068C44.0352 50.4524 43.1481 49.7925 42.4341 48.9271C41.7201 48.04 41.3631 46.8716 41.3631 45.422C41.3631 43.6262 42.0122 42.09 43.3104 40.8134C44.6302 39.5153 46.5234 38.7255 48.9899 38.4443V34.8418H52.2354V38.3793C54.8966 38.5957 57.0927 39.2556 58.8236 40.3591L57.2009 44.351C55.5782 43.4206 53.923 42.8581 52.2354 42.6633V48.1806C53.7499 48.5268 55.0265 48.9271 56.065 49.3814C57.1252 49.8142 58.0123 50.4741 58.7263 51.3612C59.4403 52.2266 59.7973 53.3733 59.7973 54.8013ZM46.5883 45.1623C46.5883 45.7033 46.7938 46.1468 47.2049 46.493C47.616 46.8392 48.211 47.1313 48.9899 47.3693V42.7607C48.1677 42.9554 47.5619 43.2692 47.1725 43.7019C46.783 44.113 46.5883 44.5998 46.5883 45.1623ZM52.2354 57.4302C53.0143 57.2571 53.5985 56.9758 53.9879 56.5863C54.3774 56.1969 54.5721 55.7317 54.5721 55.1908C54.5721 54.6499 54.3665 54.2063 53.9555 53.8602C53.566 53.514 52.9926 53.2111 52.2354 52.9514V57.4302Z" fill="#3A4042"/>
</svg>
