<svg width="100" height="100" viewBox="0 0 100 100" fill="none" xmlns="http://www.w3.org/2000/svg">
<path d="M12.5 12.5V23.925L3.125 36.425V37.5C3.125 42.6406 7.35938 46.875 12.5 46.875V87.5H62.5V59.375H68.75V87.5H87.5V46.875C92.6406 46.875 96.875 42.6406 96.875 37.5V36.425L87.5 23.925V12.5H12.5ZM18.75 18.75H81.25V21.875H18.75V18.75ZM17.1875 28.125H82.8125L90.3313 38.1844C89.9875 39.5375 88.9656 40.625 87.5 40.625C85.7656 40.625 84.375 39.2344 84.375 37.5H78.125C78.125 39.2344 76.7344 40.625 75 40.625C73.2656 40.625 71.875 39.2344 71.875 37.5H65.625C65.625 39.2344 64.2344 40.625 62.5 40.625C60.7656 40.625 59.375 39.2344 59.375 37.5H53.125C53.125 39.2344 51.7344 40.625 50 40.625C48.2656 40.625 46.875 39.2344 46.875 37.5H40.625C40.625 39.2344 39.2344 40.625 37.5 40.625C35.7656 40.625 34.375 39.2344 34.375 37.5H28.125C28.125 39.2344 26.7344 40.625 25 40.625C23.2656 40.625 21.875 39.2344 21.875 37.5H15.625C15.625 39.2344 14.2344 40.625 12.5 40.625C11.0344 40.625 10.0094 39.5375 9.66875 38.1844L17.1875 28.125ZM18.75 44.4344C20.4094 45.9344 22.6063 46.875 25 46.875C27.3937 46.875 29.5906 45.9375 31.25 44.4344C32.9094 45.9344 35.1063 46.875 37.5 46.875C39.8937 46.875 42.0906 45.9375 43.75 44.4344C45.4094 45.9344 47.6063 46.875 50 46.875C52.3937 46.875 54.5906 45.9375 56.25 44.4344C57.9094 45.9344 60.1063 46.875 62.5 46.875C64.8937 46.875 67.0906 45.9375 68.75 44.4344C70.4094 45.9344 72.6063 46.875 75 46.875C77.3937 46.875 79.5906 45.9375 81.25 44.4344V81.25H75V53.125H56.25V81.25H18.75V44.4344ZM25 53.125V75H50V53.125H25ZM31.25 59.375H43.75V68.75H31.25V59.375Z" fill="#3A4042"/>
</svg>
