<svg width="100" height="100" viewBox="0 0 100 100" fill="none" xmlns="http://www.w3.org/2000/svg">
<path d="M43.75 9.375C40.3313 9.375 37.5 12.2063 37.5 15.625V18.75H28.125V15.625H21.875V18.75H15.625C12.2063 18.75 9.375 21.5813 9.375 25V75C9.375 78.4187 12.2063 81.25 15.625 81.25H84.375C87.7937 81.25 90.625 78.4187 90.625 75V25C90.625 21.5813 87.7937 18.75 84.375 18.75H78.125V15.625H71.875V18.75H62.5V15.625C62.5 12.2063 59.6687 9.375 56.25 9.375H43.75ZM43.75 15.625H56.25V18.75H43.75V15.625ZM15.625 25H84.375V75H78.125V28.125H71.875V75H28.125V28.125H21.875V75H15.625V25Z" fill="#3A4042"/>
</svg>
