<svg width="100" height="100" viewBox="0 0 100 100" fill="none" xmlns="http://www.w3.org/2000/svg">
<path d="M15.625 21.875C13.9062 21.875 12.5 23.2813 12.5 25C12.5 26.7188 13.9062 28.125 15.625 28.125H22.5594L30.7625 60.9375C31.4562 63.7188 33.95 65.625 36.8156 65.625H72.6562C75.475 65.625 77.8688 63.7563 78.6125 61.0344L86.7188 31.25H34.375L35.9375 37.5H78.6125L72.6562 59.375H36.8156L28.6125 26.5625C28.2745 25.2166 27.4946 24.0231 26.3976 23.1732C25.3007 22.3232 23.9502 21.8661 22.5625 21.875H15.625ZM68.75 65.625C63.6094 65.625 59.375 69.8594 59.375 75C59.375 80.1406 63.6094 84.375 68.75 84.375C73.8906 84.375 78.125 80.1406 78.125 75C78.125 69.8594 73.8906 65.625 68.75 65.625ZM40.625 65.625C35.4844 65.625 31.25 69.8594 31.25 75C31.25 80.1406 35.4844 84.375 40.625 84.375C45.7656 84.375 50 80.1406 50 75C50 69.8594 45.7656 65.625 40.625 65.625ZM40.625 71.875C42.3844 71.875 43.75 73.2438 43.75 75C43.75 76.7594 42.3812 78.125 40.625 78.125C38.8656 78.125 37.5 76.7563 37.5 75C37.5 73.2406 38.8688 71.875 40.625 71.875ZM68.75 71.875C70.5094 71.875 71.875 73.2438 71.875 75C71.875 76.7594 70.5062 78.125 68.75 78.125C66.9906 78.125 65.625 76.7563 65.625 75C65.625 73.2406 66.9938 71.875 68.75 71.875Z" fill="#3A4042"/>
</svg>
