<svg width="100" height="100" viewBox="0 0 100 100" fill="none" xmlns="http://www.w3.org/2000/svg">
<path d="M16.4062 8.59375L14.6469 10.2531L10.2531 14.6469L8.59375 16.4062L9.8625 18.4563L16.4062 29.3938L17.2844 30.9563H26.4688L38.9688 43.3594C27.8 54.5781 13.5906 68.8344 13.0906 69.3375C8.19375 74.2312 8.18437 82.25 13.1844 86.9156C18.0687 91.7344 26.0281 91.8594 30.6688 86.9156L30.7625 86.8156L50 67.4812L69.3375 86.9125L69.6281 87.1094C74.5344 91.7344 82.3375 91.7969 86.9156 86.9125V86.8187H87.0094C91.7969 81.9219 91.8469 73.9625 86.9156 69.3344L86.8156 69.2406L70.5094 53.0281C81.4812 52.0031 90.075 42.7375 90.2344 31.5437H90.3313C90.3438 31.4812 90.3313 31.4094 90.3313 31.3469V31.25C90.6375 27.6375 89.8563 24.1813 87.9875 21.1906L85.8437 17.875L71.2906 32.425L66.8969 27.8344L81.7406 12.9906L77.4437 11.2344C74.7028 10.0286 71.7444 9.39582 68.75 9.375C56.7375 9.375 46.875 19.2375 46.875 31.25C46.875 32.5563 47.1563 33.6906 47.3625 34.8625C45.9969 36.2313 44.9719 37.3531 43.3594 38.9656L30.9563 26.5625V17.2844L29.3938 16.4062L18.4563 9.8625L16.4062 8.59375ZM68.75 15.625C69.1875 15.625 69.4938 15.8812 69.9219 15.9187L58.1062 27.7344L60.2531 29.9812L69.0437 39.0625L71.1906 41.3094L83.5938 28.9062C83.6562 29.625 84.1688 30.15 84.0813 30.9563V31.25C84.0813 39.8562 77.0625 46.875 68.4563 46.875C67.3094 46.875 65.9187 46.6063 64.3562 46.2875L62.6938 45.9969L61.5219 47.1687L26.2719 82.5188H26.1719V82.6187C23.9531 85.0469 20.0687 85.1063 17.4812 82.5188V82.4219H17.3812C14.9531 80.2031 14.8937 76.3187 17.4812 73.7312C18.6656 72.5437 41.6 49.4125 52.8313 38.1844L54.1031 36.9156L53.6125 35.1562C53.3159 33.8744 53.1525 32.5654 53.125 31.25C53.125 22.6438 60.1438 15.625 68.75 15.625ZM17.3812 16.4062L24.7063 20.9V24.025L24.025 24.7063H20.9L16.4062 17.3844L17.3812 16.4062ZM63.0844 54.3938L82.5219 73.7312V73.8281H82.6156C85.0469 76.0469 85.1062 79.9313 82.5219 82.5188H82.4219V82.6187C80.2031 85.0469 76.3187 85.1063 73.7312 82.5188L54.3938 63.0875L63.0844 54.3938Z" fill="#3A4042"/>
</svg>
