<svg width="100" height="100" viewBox="0 0 100 100" fill="none" xmlns="http://www.w3.org/2000/svg">
<path d="M40.8221 12.5C38.0846 12.5 35.6814 13.9063 33.9846 15.7219C32.2877 17.5406 31.0658 19.8125 29.9814 22.2656C28.3221 26.0469 27.1377 30.25 26.0752 34.1812C22.6814 35.1687 19.8002 36.4 17.4814 37.8906C14.7721 39.6375 12.5002 42.0531 12.5002 45.3125C12.5002 48.1438 14.2346 50.4156 16.4064 52.05C18.2627 53.4438 20.5439 54.6031 23.2439 55.5656C23.4002 56.2844 23.6346 57.0187 23.9252 57.7156C21.2908 59.2031 17.1127 62.0844 13.0877 67.5781L11.2314 70.2156L13.8689 72.0688L24.1189 79.1L19.9252 87.5H80.0814L75.8814 79.1L86.1377 72.0688L88.7721 70.2156L86.9189 67.5781C82.8877 62.0844 78.7158 59.2031 76.0752 57.7156C76.3721 57.0187 76.6033 56.2875 76.7627 55.5656C79.4596 54.6031 81.7408 53.4406 83.5971 52.05C85.7689 50.4156 87.5033 48.1438 87.5033 45.3125C87.5033 42.0531 85.2314 39.6375 82.5221 37.8906C80.2033 36.4 77.3221 35.1688 73.9283 34.1781C72.7564 30.1031 71.4627 25.8313 69.8283 22.0719C68.7658 19.6406 67.5939 17.4062 65.9221 15.625C64.2502 13.8438 61.8689 12.5 59.1814 12.5C57.3627 12.5 55.9846 13 54.4939 13.3781C53.0064 13.7563 51.5033 14.0625 50.0033 14.0625C47.0033 14.0625 44.4846 12.5 40.8221 12.5V12.5ZM40.8221 18.75C41.4689 18.75 45.3127 20.3125 50.0002 20.3125C52.3439 20.3125 54.4314 19.8375 56.0564 19.4344C57.6783 19.0281 58.9127 18.75 59.1814 18.75C59.9002 18.75 60.4377 18.9813 61.3283 19.9219C62.2189 20.8594 63.2689 22.5594 64.1596 24.6094C65.8564 28.4906 67.1502 33.7906 68.5564 38.6719C68.5564 38.6594 68.7252 38.525 68.2627 38.7688C67.4814 39.1969 65.8439 39.7469 63.8658 40.0375C59.9002 40.6375 54.4908 40.625 50.0002 40.625C45.5314 40.625 40.1127 40.5625 36.1314 39.9406C34.1439 39.6375 32.5314 39.0969 31.7377 38.6719C31.4939 38.5375 31.4096 38.5875 31.3471 38.575V38.4781C31.3596 38.4531 31.3346 38.4031 31.3471 38.3781L31.4439 38.2812C31.6778 37.861 31.8124 37.3928 31.8377 36.9125V36.8187C32.9596 32.6656 34.2158 28.2719 35.7439 24.8031C36.6564 22.7187 37.6471 21.0219 38.5752 20.0219C39.5033 19.0188 40.1377 18.75 40.8221 18.75V18.75ZM25.5846 40.9187C26.2939 42.3844 27.5408 43.5563 28.8096 44.2375C30.7158 45.25 32.8971 45.7281 35.2533 46.0938C39.9658 46.825 45.4846 46.875 50.0002 46.875C54.4939 46.875 60.0221 46.9 64.7471 46.1906C67.1158 45.8375 69.2752 45.375 71.1908 44.3344C72.4721 43.6406 73.7189 42.4062 74.4158 40.9187C76.3439 41.6031 77.9658 42.3344 79.1033 43.0656C80.9221 44.2375 81.2502 45.1063 81.2502 45.3125C81.2502 45.4969 81.0939 46.0937 79.7846 47.0719C78.4783 48.0469 76.2346 49.1813 73.3408 50.0969C67.5533 51.9406 59.2283 53.125 50.0002 53.125C40.7721 53.125 32.4471 51.9406 26.6596 50.0969C23.7658 49.1813 21.5221 48.0469 20.2158 47.0719C18.9064 46.0937 18.7502 45.4969 18.7502 45.3125C18.7502 45.1063 18.9939 44.325 20.8002 43.1625C21.9377 42.4313 23.6096 41.6375 25.5877 40.9187H25.5846ZM33.6908 58.0094C34.7158 58.1781 35.7314 58.4594 36.8158 58.5938C37.2221 61.3406 39.3564 63.7562 42.7721 63.9656C45.4096 64.1219 48.3752 62.8781 48.6346 59.375H51.3689C51.6252 62.8781 54.5877 64.125 57.2283 63.9656C60.6439 63.7562 62.7814 61.3406 63.1846 58.5938C64.2689 58.4594 65.2846 58.1781 66.3096 58.0063L66.0158 59.9594C65.0502 65.1 62.7564 69.8594 59.8627 73.1469C56.9689 76.425 53.5783 78.1719 50.0002 78.125C46.3252 78.075 43.0064 76.3062 40.1377 73.0469C37.2689 69.7875 35.0127 65.125 33.9846 59.9594L33.6908 58.0094ZM71.8752 62.5C73.0346 63.1844 76.0877 65.1875 79.5908 69.0437L70.1158 75.5844L67.8721 77.0531L69.0439 79.4906L69.9221 81.25H60.0596C61.7212 80.1128 63.2303 78.7675 64.5502 77.2469C67.9939 73.3406 70.3002 68.225 71.5814 62.6938C71.6908 62.6344 71.7783 62.5625 71.8752 62.5V62.5ZM28.0283 62.5969C28.1502 62.6719 28.2971 62.7219 28.4189 62.7937C29.7627 68.25 32.0564 73.3031 35.4502 77.1469C36.8533 78.7469 38.4877 80.1156 40.2346 81.25H30.0783L30.9564 79.4906L32.1283 77.0531L29.8814 75.5844L20.4127 69.0437C23.7189 65.3937 26.7346 63.3781 28.0283 62.5969V62.5969Z" fill="#3A4042"/>
</svg>
