<svg width="18" height="18" viewBox="0 0 18 18" fill="none" xmlns="http://www.w3.org/2000/svg">
<g clip-path="url(#clip0)">
<path d="M17.6023 5.63558C17.5626 4.73357 17.4167 4.11344 17.2078 3.5761C16.9922 3.00572 16.6606 2.49506 16.2261 2.07054C15.8016 1.63942 15.2875 1.30443 14.7238 1.09223C14.1833 0.88328 13.5664 0.737414 12.6644 0.697644C11.7557 0.654506 11.4672 0.644531 9.16235 0.644531C6.85752 0.644531 6.56902 0.654506 5.66365 0.694276C4.76164 0.734046 4.14151 0.880041 3.6043 1.08887C3.03379 1.30443 2.52313 1.63606 2.09862 2.07054C1.6675 2.49506 1.33263 3.00909 1.12031 3.57286C0.911356 4.11344 0.76549 4.7302 0.72572 5.63221C0.682582 6.54096 0.672607 6.82945 0.672607 9.13428C0.672607 11.4391 0.682582 11.7276 0.722352 12.633C0.762122 13.535 0.908117 14.1551 1.11707 14.6925C1.33263 15.2629 1.6675 15.7735 2.09862 16.198C2.52313 16.6291 3.03716 16.9641 3.60093 17.1763C4.14151 17.3853 4.75827 17.5312 5.66041 17.5709C6.56566 17.6108 6.85428 17.6207 9.15911 17.6207C11.4639 17.6207 11.7524 17.6108 12.6578 17.5709C13.5598 17.5312 14.1799 17.3853 14.7172 17.1763C15.858 16.7352 16.7601 15.8332 17.2012 14.6925C17.41 14.1519 17.556 13.535 17.5957 12.633C17.6355 11.7276 17.6455 11.4391 17.6455 9.13428C17.6455 6.82945 17.6421 6.54096 17.6023 5.63558ZM16.0736 12.5667C16.0371 13.3957 15.8978 13.8434 15.7817 14.1419C15.4965 14.8815 14.9095 15.4684 14.17 15.7537C13.8715 15.8698 13.4206 16.009 12.5947 16.0454C11.6993 16.0853 11.4308 16.0952 9.16572 16.0952C6.90066 16.0952 6.62874 16.0853 5.73658 16.0454C4.9075 16.009 4.4598 15.8698 4.16133 15.7537C3.7933 15.6177 3.4583 15.4021 3.18639 15.1202C2.90451 14.8449 2.68895 14.5133 2.55293 14.1453C2.43686 13.8468 2.2976 13.3957 2.2612 12.57C2.2213 11.6746 2.21145 11.406 2.21145 9.14089C2.21145 6.87583 2.2213 6.60391 2.2612 5.71188C2.2976 4.8828 2.43686 4.4351 2.55293 4.13663C2.68895 3.76847 2.90451 3.4336 3.18976 3.16156C3.46491 2.87967 3.79654 2.66411 4.1647 2.52822C4.46317 2.41215 4.91424 2.27289 5.73995 2.23636C6.63535 2.19659 6.90402 2.18662 9.16896 2.18662C11.4374 2.18662 11.7059 2.19659 12.5981 2.23636C13.4272 2.27289 13.8749 2.41215 14.1733 2.52822C14.5414 2.66411 14.8764 2.87967 15.1483 3.16156C15.4302 3.43684 15.6457 3.76847 15.7817 4.13663C15.8978 4.4351 16.0371 4.88604 16.0736 5.71188C16.1134 6.60728 16.1234 6.87583 16.1234 9.14089C16.1234 11.406 16.1134 11.6713 16.0736 12.5667Z" fill="black"/>
<path d="M9.16246 4.77344C6.7549 4.77344 4.80151 6.72669 4.80151 9.13439C4.80151 11.5421 6.7549 13.4953 9.16246 13.4953C11.5702 13.4953 13.5234 11.5421 13.5234 9.13439C13.5234 6.72669 11.5702 4.77344 9.16246 4.77344ZM9.16246 11.9632C7.60056 11.9632 6.33362 10.6964 6.33362 9.13439C6.33362 7.57235 7.60056 6.30555 9.16246 6.30555C10.7245 6.30555 11.9913 7.57235 11.9913 9.13439C11.9913 10.6964 10.7245 11.9632 9.16246 11.9632Z" fill="black"/>
<path d="M14.714 4.60085C14.714 5.16307 14.2582 5.61893 13.6958 5.61893C13.1336 5.61893 12.6777 5.16307 12.6777 4.60085C12.6777 4.0385 13.1336 3.58276 13.6958 3.58276C14.2582 3.58276 14.714 4.0385 14.714 4.60085Z" fill="black"/>
</g>
<defs>
<clipPath id="clip0">
<rect width="16.9762" height="16.9762" fill="white" transform="translate(0.642822 0.644531)"/>
</clipPath>
</defs>
</svg>
